<?xml version="1.0" encoding="UTF-8" standalone="no"?>
<svg width="17px" height="16px" viewBox="0 0 17 16" version="1.1" xmlns="http://www.w3.org/2000/svg" xmlns:xlink="http://www.w3.org/1999/xlink">
    <!-- Generator: Sketch 40 (33762) - http://www.bohemiancoding.com/sketch -->
    <title>Shape</title>
    <desc>Created with Sketch.</desc>
    <defs></defs>
    <g id="Page-1" stroke="none" stroke-width="1" fill="none" fill-rule="evenodd">
        <g id="Desktop-HD" transform="translate(-163.000000, -842.000000)" fill="#FFFFFF">
            <g id="Social" transform="translate(76.000000, 842.000000)">
                <path d="M102.98,5.474 L102.98,5.474 L102.98,5.406 L102.98,5.406 L102.98,5.338 C102.98,5.338 102.98,5.338 102.98,5.27 C102.98,5.27 102.98,5.27 102.98,5.202 L102.98,5.202 C102.98,5.202 102.98,5.202 102.98,5.134 L102.98,5.134 C102.98,5.134 102.98,5.134 102.912,5.066 L102.912,5.066 C102.912,5.066 102.912,5.066 102.844,5.066 L102.844,5.066 L102.844,5.066 L95.364,0.102 C95.16,-0.034 94.82,-0.034 94.616,0.102 L87.136,5.066 L87.136,5.066 L87.136,5.066 C87.136,5.066 87.136,5.066 87.068,5.066 L87.068,5.066 C87.068,5.066 87.068,5.066 87,5.134 L87,5.134 C87,5.134 87,5.134 87,5.202 L87,5.202 C87,5.202 87,5.202 87,5.27 C87,5.27 87,5.27 87,5.338 C87,5.338 87,5.338 87,5.406 L87,5.406 L87,5.474 L87,5.474 L87,5.542 L87,10.506 L87,10.574 L87,10.574 L87,10.642 L87,10.642 L87,10.71 L87,10.71 C87,10.71 87,10.71 87,10.778 L87,10.778 C87,10.778 87,10.778 87,10.846 L87,10.846 C87,10.846 87,10.846 87.068,10.914 L87.068,10.914 L87.136,10.914 L87.136,10.914 L87.136,10.914 L94.616,15.878 C94.752,15.946 94.888,16.014 95.024,16.014 C95.16,16.014 95.296,15.946 95.432,15.878 L102.912,10.914 L102.912,10.914 L102.912,10.914 L102.98,10.914 L102.98,10.914 C102.98,10.914 102.98,10.914 103.048,10.846 L103.048,10.846 C103.048,10.846 103.048,10.846 103.048,10.778 L103.048,10.778 C103.048,10.778 103.048,10.778 103.048,10.71 L103.048,10.71 L103.048,10.642 L103.048,10.642 L103.048,10.574 L103.048,10.574 L103.048,10.506 L103.048,5.542 C102.98,5.542 102.98,5.542 102.98,5.474 L102.98,5.474 Z M95.5,1.938 L101.008,5.61 L98.56,7.242 L95.5,5.202 L95.5,1.938 L95.5,1.938 Z M94.14,1.938 L94.14,5.202 L91.08,7.242 L88.632,5.542 L94.14,1.938 L94.14,1.938 Z M88.088,6.902 L89.788,8.058 L88.02,9.214 L88.02,6.902 L88.088,6.902 Z M94.14,14.178 L88.632,10.506 L91.08,8.874 L94.14,10.914 L94.14,14.178 L94.14,14.178 Z M94.82,9.69 L92.372,8.058 L94.82,6.426 L97.268,8.058 L94.82,9.69 L94.82,9.69 Z M95.5,14.178 L95.5,10.914 L98.56,8.874 L101.008,10.506 L95.5,14.178 L95.5,14.178 Z M101.552,9.214 L99.852,8.058 L101.62,6.902 L101.62,9.214 L101.552,9.214 Z" id="Shape"></path>
            </g>
        </g>
    </g>
</svg>